<svg width="17" height="17" viewBox="0 0 17 17" fill="none" xmlns="http://www.w3.org/2000/svg">
<path d="M10.95 1.14409C12.635 0.648089 13.934 1.41409 14.527 2.32309C15.2 2.09209 15.858 1.84209 16.538 1.61509C16.5249 2.30145 16.2117 2.94761 15.681 3.38309C16.366 3.55309 16.985 2.89209 16.985 2.89209C16.816 3.89209 15.979 4.68009 15.422 4.91609C15.191 11.6661 12.247 16.1331 5.345 15.9981H4.899C4.489 15.9981 0.734999 15.5381 0.000999451 14.1111C2.272 14.3071 3.894 13.6891 4.694 12.9341C3.734 12.6341 2.015 12.4571 1.715 9.98409C2.064 10.0901 2.279 10.2121 2.905 10.1031C1.705 9.24709 0.373999 8.53009 0.447999 6.33009C0.732999 6.65809 1.515 6.86609 1.788 6.80209C1.085 6.56109 -0.182 3.44209 0.893999 1.85009C2.712 3.70409 4.629 5.45609 8.046 5.62309C8.254 3.33009 9.183 1.79309 10.95 1.14409Z" fill="white"/>
</svg>
